<svg xmlns="http://www.w3.org/2000/svg" xmlns:xlink="http://www.w3.org/1999/xlink" viewBox="0 0 413.86 359"><defs><style>.cls-1{fill:url(#linear-gradient);}.cls-2{clip-path:url(#clip-path);}.cls-3{fill:url(#linear-gradient-3);}</style><linearGradient id="linear-gradient" y1="179.5" x2="412.39" y2="179.5" gradientUnits="userSpaceOnUse"><stop offset="0" stop-color="#16e9db"/><stop offset="1" stop-color="#16e9db"/></linearGradient><clipPath id="clip-path" transform="translate(1.47)"><path class="cls-1" d="M190.26,323.42a4.92,4.92,0,1,1,4.93,4.91,4.93,4.93,0,0,1-4.93-4.91m170.76,0a4.92,4.92,0,1,1,4.91,4.91,4.93,4.93,0,0,1-4.91-4.91M156.92,220.5,148,180.21l70.43-4.63,6.16,39.31-29.27,3.49h0l-22.85,2.73,0,0-12.49,1.48Zm73.57-45.71,71.31-4.71,3,35.24-68.18,8.13Zm83.35-5.54,72.44-4.77v7.21a26.94,26.94,0,0,1-23.71,26.73l-45.79,5.45ZM135.21,122.7l74.81-.47,6.48,41.37-71.17,4.69Zm87-.53,75.47-.46,3.1,36.33-72.15,4.75Zm83.5-48.52,76.6,4.06a4.17,4.17,0,0,1,4,4.17V109.1l-77.51.46Zm-91.87-4.86L293.53,73l3.14,36.63-76.32.48Zm-91.66-4.87,79.32,4.19,6.62,42.05-75.59.46ZM17.25,24.48a6.24,6.24,0,0,1-5.07-7.23,6.12,6.12,0,0,1,2.58-4.05l3.57-1.14,1.08.12L67,20.55,64.81,32.86ZM18.29,0a18.29,18.29,0,0,0-18,15.15A18.36,18.36,0,0,0,15.17,36.38l52.37,9.25,1.26.1a7.2,7.2,0,0,0,7-5.91l.88-5,19.35,3.56a12.81,12.81,0,0,1,10.24,9.84L140,199.8v0l5.16,23.32a14.8,14.8,0,0,0,14.44,11.59l1.08-.06-2.79,4.08a29.71,29.71,0,0,0,24.52,46.48h6.76v3.16a35.59,35.59,0,1,0,32.55,11.34,6,6,0,0,0-4.5-2,6,6,0,0,0-4.5,10,23.47,23.47,0,1,1-23.55-7v6.78a17,17,0,1,0,12.12,0v-22.3H359.88v3.16a35.57,35.57,0,1,0,32.55,11.34,6,6,0,0,0-8.5-.47,6,6,0,0,0-.49,8.52,23.48,23.48,0,1,1-23.54-7v6.78a17,17,0,1,0,12.08,0v-22.3h24.81a15.6,15.6,0,1,0,0-31.19H265.51a6,6,0,1,0,0,12.06H396.79a3.54,3.54,0,0,1,0,7.07H182.36a17.62,17.62,0,0,1-14.54-27.58l8.76-12.81,9.32-1.1-12.26,17.9a10.56,10.56,0,0,0,8.72,16.52h59a6,6,0,1,0,0-12.06H185.21l14.06-20.53,1.85-3.65L338,213.51l26-3.1a39,39,0,0,0,34.4-38.72V149.45a6,6,0,0,0-12.09,0v3l-73.46,4.83-3-35.59,76.49-.46v4a6,6,0,0,0,12.09,0V81.88a16.28,16.28,0,0,0-15.43-16.25L207.13,56.32h-.26l-87.43-4.64-1.34-6.11A25,25,0,0,0,98.26,26.44L78.82,22.91l.9-5.11a7.2,7.2,0,0,0-1.18-5.35,7.07,7.07,0,0,0-4.62-2.94L21.49.28A17.3,17.3,0,0,0,18.29,0Z"/></clipPath><linearGradient id="linear-gradient-3" x1="-35.05" y1="447.13" x2="-15.41" y2="447.13" gradientTransform="matrix(20.99, 0, 0, -20.99, 737.31, 9566.25)" xlink:href="#linear-gradient"/></defs><g id="Layer_2" data-name="Layer 2"><g id="Layer_1-2" data-name="Layer 1"><path class="cls-1" d="M190.26,323.42a4.92,4.92,0,1,1,4.93,4.91,4.93,4.93,0,0,1-4.93-4.91m170.76,0a4.92,4.92,0,1,1,4.91,4.91,4.93,4.93,0,0,1-4.91-4.91M156.92,220.5,148,180.21l70.43-4.63,6.16,39.31-29.27,3.49h0l-22.85,2.73,0,0-12.49,1.48Zm73.57-45.71,71.31-4.71,3,35.24-68.18,8.13Zm83.35-5.54,72.44-4.77v7.21a26.94,26.94,0,0,1-23.71,26.73l-45.79,5.45ZM135.21,122.7l74.81-.47,6.48,41.37-71.17,4.69Zm87-.53,75.47-.46,3.1,36.33-72.15,4.75Zm83.5-48.52,76.6,4.06a4.17,4.17,0,0,1,4,4.17V109.1l-77.51.46Zm-91.87-4.86L293.53,73l3.14,36.63-76.32.48Zm-91.66-4.87,79.32,4.19,6.62,42.05-75.59.46ZM17.25,24.48a6.24,6.24,0,0,1-5.07-7.23,6.12,6.12,0,0,1,2.58-4.05l3.57-1.14,1.08.12L67,20.55,64.81,32.86ZM18.29,0a18.29,18.29,0,0,0-18,15.15A18.36,18.36,0,0,0,15.17,36.38l52.37,9.25,1.26.1a7.2,7.2,0,0,0,7-5.91l.88-5,19.35,3.56a12.81,12.81,0,0,1,10.24,9.84L140,199.8v0l5.16,23.32a14.8,14.8,0,0,0,14.44,11.59l1.08-.06-2.79,4.08a29.71,29.71,0,0,0,24.52,46.48h6.76v3.16a35.59,35.59,0,1,0,32.55,11.34,6,6,0,0,0-4.5-2,6,6,0,0,0-4.5,10,23.47,23.47,0,1,1-23.55-7v6.78a17,17,0,1,0,12.12,0v-22.3H359.88v3.16a35.57,35.57,0,1,0,32.55,11.34,6,6,0,0,0-8.5-.47,6,6,0,0,0-.49,8.52,23.48,23.48,0,1,1-23.54-7v6.78a17,17,0,1,0,12.08,0v-22.3h24.81a15.6,15.6,0,1,0,0-31.19H265.51a6,6,0,1,0,0,12.06H396.79a3.54,3.54,0,0,1,0,7.07H182.36a17.62,17.62,0,0,1-14.54-27.58l8.76-12.81,9.32-1.1-12.26,17.9a10.56,10.56,0,0,0,8.72,16.52h59a6,6,0,1,0,0-12.06H185.21l14.06-20.53,1.85-3.65L338,213.51l26-3.1a39,39,0,0,0,34.4-38.72V149.45a6,6,0,0,0-12.09,0v3l-73.46,4.83-3-35.59,76.49-.46v4a6,6,0,0,0,12.09,0V81.88a16.28,16.28,0,0,0-15.43-16.25L207.13,56.32h-.26l-87.43-4.64-1.34-6.11A25,25,0,0,0,98.26,26.44L78.82,22.91l.9-5.11a7.2,7.2,0,0,0-1.18-5.35,7.07,7.07,0,0,0-4.62-2.94L21.49.28A17.3,17.3,0,0,0,18.29,0Z" transform="translate(1.47)"/><g class="cls-2"><rect class="cls-3" width="413.86" height="359"/></g></g></g></svg>